# xmcd
#
# Track frame offsets: 
#        150
#        19912
#        35773
#        50720
#        73350
#        95705
#        113401
#        135168
#        152330
#        168892
#
# Disc length: 2588 seconds
#
# Revision: 0
# Processed by: cddbd v1.5.1PL0 Copyright (c) Steve Scherf et al.
# Submitted via: ExactAudioCopy v0.95b3
#
DISCID=7f0a1a0a
DTITLE=Ador Dorath - Symbols
DYEAR=2005
DGENRE=Metal
TTITLE0=Rosa
TTITLE1=Vitriol
TTITLE2=Earth
TTITLE3=River
TTITLE4=Desert
TTITLE5=Mountain
TTITLE6=Balance
TTITLE7=Limits
TTITLE8=Nine
TTITLE9=Island (Bonus)
EXTD=
EXTT0=
EXTT1=
EXTT2=
EXTT3=
EXTT4=
EXTT5=
EXTT6=
EXTT7=
EXTT8=
EXTT9=
PLAYORDER=
